# xmcd
#
# Track frame offsets: 
#        150
#        15940
#        31005
#        47127
#        65587
#        88332
#        106945
#        122102
#        138065
#        162080
#        180687
#
# Disc length: 2636 seconds
#
# Revision: 0
# Processed by: cddbd v1.5.1PL0 Copyright (c) Steve Scherf et al.
# Submitted via: ExactAudioCopy v0.95a2
#
DISCID=850a4a0b
DTITLE=Louisiana Red - Live At Montreux
DYEAR=2003
DGENRE=Blues
TTITLE0=Bring It On Home To Me
TTITLE1=First Degree
TTITLE2=Look At The Children Run
TTITLE3=My Hearts A Loser
TTITLE4=When My Mama Was Living
TTITLE5=Held Up In One Town
TTITLE6=Turkey Killer
TTITLE7=Date With Barbara
TTITLE8=Standing At Your Door
TTITLE9=Going Train Blues
TTITLE10=Sweet Blood Call
EXTD=
EXTT0=
EXTT1=
EXTT2=
EXTT3=
EXTT4=
EXTT5=
EXTT6=
EXTT7=
EXTT8=
EXTT9=
EXTT10=
PLAYORDER=
